<mxfile host="app.diagrams.net" agent="Mozilla/5.0 (Windows NT 10.0; Win64; x64) AppleWebKit/537.36 (KHTML, like Gecko) Chrome/130.0.0.0 Safari/537.36 Edg/130.0.0.0" version="24.8.6">
  <diagram id="Ht1M8jgEwFfnCIfOTk4-" name="Page-1">
    <mxGraphModel dx="2147" dy="1260" grid="1" gridSize="10" guides="1" tooltips="1" connect="1" arrows="1" fold="1" page="1" pageScale="1" pageWidth="1169" pageHeight="827" math="0" shadow="0">
      <root>
        <mxCell id="0" />
        <mxCell id="1" parent="0" />
        <mxCell id="I-KyiOyr2GjRbbqOG1Y5-1" value="users" style="sketch=0;outlineConnect=0;gradientColor=none;fontColor=#545B64;strokeColor=none;fillColor=#879196;dashed=0;verticalLabelPosition=bottom;verticalAlign=top;align=center;html=1;fontSize=12;fontStyle=0;aspect=fixed;shape=mxgraph.aws4.illustration_users;pointerEvents=1" vertex="1" parent="1">
          <mxGeometry x="14" y="302" width="140" height="140" as="geometry" />
        </mxCell>
        <mxCell id="I-KyiOyr2GjRbbqOG1Y5-2" value="" style="aspect=fixed;sketch=0;html=1;dashed=0;whitespace=wrap;verticalLabelPosition=bottom;verticalAlign=top;fillColor=#2875E2;strokeColor=#ffffff;points=[[0.005,0.63,0],[0.1,0.2,0],[0.9,0.2,0],[0.5,0,0],[0.995,0.63,0],[0.72,0.99,0],[0.5,1,0],[0.28,0.99,0]];shape=mxgraph.kubernetes.icon2;kubernetesLabel=1;prIcon=api" vertex="1" parent="1">
          <mxGeometry x="570" y="292" width="156.25" height="150" as="geometry" />
        </mxCell>
        <mxCell id="I-KyiOyr2GjRbbqOG1Y5-4" value="" style="sketch=0;outlineConnect=0;fontColor=#232F3E;gradientColor=none;fillColor=#C925D1;strokeColor=none;dashed=0;verticalLabelPosition=bottom;verticalAlign=top;align=center;html=1;fontSize=12;fontStyle=0;aspect=fixed;pointerEvents=1;shape=mxgraph.aws4.rds_sql_server_instance;" vertex="1" parent="1">
          <mxGeometry x="960" y="297" width="150" height="150" as="geometry" />
        </mxCell>
        <mxCell id="I-KyiOyr2GjRbbqOG1Y5-5" value="" style="html=1;verticalLabelPosition=bottom;align=center;labelBackgroundColor=#ffffff;verticalAlign=top;strokeWidth=2;strokeColor=#0080F0;shadow=0;dashed=0;shape=mxgraph.ios7.icons.calculator;" vertex="1" parent="1">
          <mxGeometry x="279" y="473" width="90" height="128" as="geometry" />
        </mxCell>
        <mxCell id="I-KyiOyr2GjRbbqOG1Y5-6" value="" style="edgeStyle=segmentEdgeStyle;endArrow=classic;html=1;curved=0;rounded=0;endSize=8;startSize=8;exitX=0.5;exitY=1.004;exitDx=0;exitDy=0;exitPerimeter=0;" edge="1" parent="1" source="I-KyiOyr2GjRbbqOG1Y5-5" target="I-KyiOyr2GjRbbqOG1Y5-4">
          <mxGeometry width="50" height="50" relative="1" as="geometry">
            <mxPoint x="460" y="320" as="sourcePoint" />
            <mxPoint x="1050" y="490" as="targetPoint" />
            <Array as="points">
              <mxPoint x="324" y="640" />
              <mxPoint x="1050" y="640" />
            </Array>
          </mxGeometry>
        </mxCell>
        <mxCell id="I-KyiOyr2GjRbbqOG1Y5-7" value="Sitio Web" style="sketch=0;outlineConnect=0;gradientColor=none;fontColor=#545B64;strokeColor=none;fillColor=#879196;dashed=0;verticalLabelPosition=bottom;verticalAlign=top;align=center;html=1;fontSize=12;fontStyle=0;aspect=fixed;shape=mxgraph.aws4.illustration_desktop;pointerEvents=1" vertex="1" parent="1">
          <mxGeometry x="258.07" y="182" width="131.87" height="120" as="geometry" />
        </mxCell>
        <mxCell id="I-KyiOyr2GjRbbqOG1Y5-8" value="" style="endArrow=classic;html=1;rounded=0;" edge="1" parent="1" source="I-KyiOyr2GjRbbqOG1Y5-1" target="I-KyiOyr2GjRbbqOG1Y5-7">
          <mxGeometry width="50" height="50" relative="1" as="geometry">
            <mxPoint x="460" y="320" as="sourcePoint" />
            <mxPoint x="510" y="270" as="targetPoint" />
            <Array as="points">
              <mxPoint x="80" y="240" />
            </Array>
          </mxGeometry>
        </mxCell>
        <mxCell id="I-KyiOyr2GjRbbqOG1Y5-9" value="" style="endArrow=classic;html=1;rounded=0;entryX=0.067;entryY=0.715;entryDx=0;entryDy=0;entryPerimeter=0;" edge="1" parent="1" target="I-KyiOyr2GjRbbqOG1Y5-5">
          <mxGeometry width="50" height="50" relative="1" as="geometry">
            <mxPoint x="80" y="480" as="sourcePoint" />
            <mxPoint x="250" y="561" as="targetPoint" />
            <Array as="points">
              <mxPoint x="80" y="560" />
            </Array>
          </mxGeometry>
        </mxCell>
        <mxCell id="I-KyiOyr2GjRbbqOG1Y5-10" value="" style="edgeStyle=segmentEdgeStyle;endArrow=classic;html=1;curved=0;rounded=0;endSize=8;startSize=8;entryX=0.5;entryY=0;entryDx=0;entryDy=0;entryPerimeter=0;" edge="1" parent="1" source="I-KyiOyr2GjRbbqOG1Y5-7" target="I-KyiOyr2GjRbbqOG1Y5-2">
          <mxGeometry width="50" height="50" relative="1" as="geometry">
            <mxPoint x="460" y="320" as="sourcePoint" />
            <mxPoint x="510" y="270" as="targetPoint" />
          </mxGeometry>
        </mxCell>
        <mxCell id="I-KyiOyr2GjRbbqOG1Y5-12" value="" style="endArrow=classic;html=1;rounded=0;entryX=0.896;entryY=0.52;entryDx=0;entryDy=0;entryPerimeter=0;" edge="1" parent="1" source="I-KyiOyr2GjRbbqOG1Y5-4" target="I-KyiOyr2GjRbbqOG1Y5-2">
          <mxGeometry width="50" height="50" relative="1" as="geometry">
            <mxPoint x="220" y="570" as="sourcePoint" />
            <mxPoint x="270" y="520" as="targetPoint" />
          </mxGeometry>
        </mxCell>
      </root>
    </mxGraphModel>
  </diagram>
</mxfile>
